<svg width="87" height="72" viewBox="0 0 87 72" fill="none" xmlns="http://www.w3.org/2000/svg">
<path d="M5.58 69.126C4.704 69.126 3.912 68.976 3.204 68.676C2.508 68.376 1.956 67.944 1.548 67.38C1.14 66.816 0.93 66.15 0.918 65.382H3.618C3.654 65.898 3.834 66.306 4.158 66.606C4.494 66.906 4.95 67.056 5.526 67.056C6.114 67.056 6.576 66.918 6.912 66.642C7.248 66.354 7.416 65.982 7.416 65.526C7.416 65.154 7.302 64.848 7.074 64.608C6.846 64.368 6.558 64.182 6.21 64.05C5.874 63.906 5.406 63.75 4.806 63.582C3.99 63.342 3.324 63.108 2.808 62.88C2.304 62.64 1.866 62.286 1.494 61.818C1.134 61.338 0.954 60.702 0.954 59.91C0.954 59.166 1.14 58.518 1.512 57.966C1.884 57.414 2.406 56.994 3.078 56.706C3.75 56.406 4.518 56.256 5.382 56.256C6.678 56.256 7.728 56.574 8.532 57.21C9.348 57.834 9.798 58.71 9.882 59.838H7.11C7.086 59.406 6.9 59.052 6.552 58.776C6.216 58.488 5.766 58.344 5.202 58.344C4.71 58.344 4.314 58.47 4.014 58.722C3.726 58.974 3.582 59.34 3.582 59.82C3.582 60.156 3.69 60.438 3.906 60.666C4.134 60.882 4.41 61.062 4.734 61.206C5.07 61.338 5.538 61.494 6.138 61.674C6.954 61.914 7.62 62.154 8.136 62.394C8.652 62.634 9.096 62.994 9.468 63.474C9.84 63.954 10.026 64.584 10.026 65.364C10.026 66.036 9.852 66.66 9.504 67.236C9.156 67.812 8.646 68.274 7.974 68.622C7.302 68.958 6.504 69.126 5.58 69.126ZM21.4808 63.798C21.4808 64.158 21.4568 64.482 21.4088 64.77H14.1188C14.1788 65.49 14.4308 66.054 14.8748 66.462C15.3188 66.87 15.8648 67.074 16.5128 67.074C17.4488 67.074 18.1148 66.672 18.5108 65.868H21.2288C20.9408 66.828 20.3888 67.62 19.5728 68.244C18.7568 68.856 17.7548 69.162 16.5668 69.162C15.6068 69.162 14.7428 68.952 13.9748 68.532C13.2188 68.1 12.6248 67.494 12.1928 66.714C11.7728 65.934 11.5627 65.034 11.5627 64.014C11.5627 62.982 11.7728 62.076 12.1928 61.296C12.6128 60.516 13.2008 59.916 13.9568 59.496C14.7128 59.076 15.5828 58.866 16.5668 58.866C17.5148 58.866 18.3608 59.07 19.1048 59.478C19.8608 59.886 20.4428 60.468 20.8508 61.224C21.2708 61.968 21.4808 62.826 21.4808 63.798ZM18.8708 63.078C18.8588 62.43 18.6248 61.914 18.1688 61.53C17.7128 61.134 17.1548 60.936 16.4948 60.936C15.8708 60.936 15.3428 61.128 14.9108 61.512C14.4908 61.884 14.2328 62.406 14.1368 63.078H18.8708ZM25.8401 60.576C26.1641 60.048 26.5841 59.634 27.1001 59.334C27.6281 59.034 28.2281 58.884 28.9001 58.884V61.53H28.2341C27.4421 61.53 26.8421 61.716 26.4341 62.088C26.0381 62.46 25.8401 63.108 25.8401 64.032V69H23.3201V59.028H25.8401V60.576ZM34.7555 66.678L37.2755 59.028H39.9575L36.2675 69H33.2075L29.5355 59.028H32.2355L34.7555 66.678ZM43.8929 58.47V61.62H48.1229V63.618H43.8929V66.948H48.6629V69H41.3729V56.418H48.6629V58.47H43.8929ZM50.3049 63.978C50.3049 62.97 50.5029 62.076 50.8989 61.296C51.3069 60.516 51.8529 59.916 52.5369 59.496C53.2329 59.076 54.0069 58.866 54.8589 58.866C55.6029 58.866 56.2509 59.016 56.8029 59.316C57.3669 59.616 57.8169 59.994 58.1529 60.45V59.028H60.6909V69H58.1529V67.542C57.8289 68.01 57.3789 68.4 56.8029 68.712C56.2389 69.012 55.5849 69.162 54.8409 69.162C54.0009 69.162 53.2329 68.946 52.5369 68.514C51.8529 68.082 51.3069 67.476 50.8989 66.696C50.5029 65.904 50.3049 64.998 50.3049 63.978ZM58.1529 64.014C58.1529 63.402 58.0329 62.88 57.7929 62.448C57.5529 62.004 57.2289 61.668 56.8209 61.44C56.4129 61.2 55.9749 61.08 55.5069 61.08C55.0389 61.08 54.6069 61.194 54.2109 61.422C53.8149 61.65 53.4909 61.986 53.2389 62.43C52.9989 62.862 52.8789 63.378 52.8789 63.978C52.8789 64.578 52.9989 65.106 53.2389 65.562C53.4909 66.006 53.8149 66.348 54.2109 66.588C54.6189 66.828 55.0509 66.948 55.5069 66.948C55.9749 66.948 56.4129 66.834 56.8209 66.606C57.2289 66.366 57.5529 66.03 57.7929 65.598C58.0329 65.154 58.1529 64.626 58.1529 64.014ZM66.9682 69.162C66.1522 69.162 65.4202 69.018 64.7722 68.73C64.1242 68.43 63.6082 68.028 63.2242 67.524C62.8522 67.02 62.6482 66.462 62.6122 65.85H65.1502C65.1982 66.234 65.3842 66.552 65.7082 66.804C66.0442 67.056 66.4582 67.182 66.9502 67.182C67.4302 67.182 67.8022 67.086 68.0662 66.894C68.3422 66.702 68.4802 66.456 68.4802 66.156C68.4802 65.832 68.3122 65.592 67.9762 65.436C67.6522 65.268 67.1302 65.088 66.4102 64.896C65.6662 64.716 65.0542 64.53 64.5742 64.338C64.1062 64.146 63.6982 63.852 63.3502 63.456C63.0142 63.06 62.8462 62.526 62.8462 61.854C62.8462 61.302 63.0022 60.798 63.3142 60.342C63.6382 59.886 64.0942 59.526 64.6822 59.262C65.2822 58.998 65.9842 58.866 66.7882 58.866C67.9762 58.866 68.9242 59.166 69.6322 59.766C70.3402 60.354 70.7302 61.152 70.8022 62.16H68.3902C68.3542 61.764 68.1862 61.452 67.8862 61.224C67.5982 60.984 67.2082 60.864 66.7162 60.864C66.2602 60.864 65.9062 60.948 65.6542 61.116C65.4142 61.284 65.2942 61.518 65.2942 61.818C65.2942 62.154 65.4622 62.412 65.7982 62.592C66.1342 62.76 66.6562 62.934 67.3642 63.114C68.0842 63.294 68.6782 63.48 69.1462 63.672C69.6142 63.864 70.0162 64.164 70.3522 64.572C70.7002 64.968 70.8802 65.496 70.8922 66.156C70.8922 66.732 70.7302 67.248 70.4062 67.704C70.0942 68.16 69.6382 68.52 69.0382 68.784C68.4502 69.036 67.7602 69.162 66.9682 69.162ZM82.2308 63.798C82.2308 64.158 82.2068 64.482 82.1588 64.77H74.8688C74.9288 65.49 75.1808 66.054 75.6248 66.462C76.0688 66.87 76.6148 67.074 77.2628 67.074C78.1988 67.074 78.8648 66.672 79.2608 65.868H81.9788C81.6908 66.828 81.1388 67.62 80.3228 68.244C79.5068 68.856 78.5048 69.162 77.3168 69.162C76.3568 69.162 75.4928 68.952 74.7248 68.532C73.9688 68.1 73.3748 67.494 72.9428 66.714C72.5228 65.934 72.3127 65.034 72.3127 64.014C72.3127 62.982 72.5228 62.076 72.9428 61.296C73.3628 60.516 73.9508 59.916 74.7068 59.496C75.4628 59.076 76.3328 58.866 77.3168 58.866C78.2648 58.866 79.1108 59.07 79.8548 59.478C80.6108 59.886 81.1928 60.468 81.6008 61.224C82.0208 61.968 82.2308 62.826 82.2308 63.798ZM79.6208 63.078C79.6088 62.43 79.3748 61.914 78.9188 61.53C78.4628 61.134 77.9048 60.936 77.2448 60.936C76.6208 60.936 76.0928 61.128 75.6608 61.512C75.2408 61.884 74.9828 62.406 74.8868 63.078H79.6208Z" fill="#1E1E1E"/>
<path d="M52.991 49.7829C50.9891 50.0779 36.3324 50.0701 34.8519 49.7725C34.2923 49.6603 32.7458 49.4305 31.418 49.2635C26.7757 48.6787 22.772 47.9426 21.9733 47.5275C20.6302 46.8305 20.6633 45.7471 22.159 41.1945C23.4918 37.1404 23.7538 36.5583 24.6009 35.7438C25.5319 34.8536 30.1868 32.9793 30.4514 33.3891C30.5658 33.5693 30.6472 35.0703 30.6269 36.7201L30.5938 39.7222H34.3432L34.4144 35.6133L34.4831 31.5018L35.4853 30.9797C36.7775 30.3009 37.3219 30.3192 38.202 31.0606C41.0026 33.4179 43.4445 35.1538 43.9609 35.1538C44.3221 35.1538 45.7542 34.2167 47.5831 32.7835C50.8136 30.2513 51.0044 30.1887 52.7493 31.0449L53.4209 31.3738L53.548 35.548L53.6752 39.7222L57.3636 39.8762V36.6157C57.3636 34.8249 57.4628 33.2925 57.5849 33.2168C57.824 33.0654 60.3041 34.0391 62.2347 35.0442C63.8678 35.8926 64.3434 36.6183 65.277 39.6804C65.7196 41.1396 66.1723 42.5676 66.2817 42.8547C67.1669 45.1989 67.2178 46.063 66.5234 46.9689C65.89 47.7938 63.8067 48.2793 56.7276 49.2504C55.6084 49.4044 53.927 49.6446 52.991 49.7829ZM52.3271 17.8072C46.8225 18.4781 34.3127 18.0995 32.1429 17.1937C30.1232 16.3531 30.2148 13.7139 32.2981 12.8212C33.0078 12.5183 33.1528 12.2834 33.4351 10.9573C33.8472 9.02813 34.8876 7.14597 36.3629 5.66844C37.6195 4.40758 37.7924 4.43368 38.2681 5.96081C38.6726 7.25822 39.1279 7.6263 39.657 7.08071C39.9724 6.75962 40.0665 6.12527 40.0665 4.35276C40.0665 2.12341 40.0945 2.01116 40.8423 1.24367C42.2642 -0.215584 44.8512 -0.419202 46.6114 0.78423C47.695 1.52561 47.7612 1.71356 47.9418 4.54071C48.1198 7.31826 48.4658 7.97088 49.2416 6.99717C49.5112 6.65781 49.7325 6.18009 49.7325 5.93732C49.7325 5.69454 49.8978 5.26643 50.0988 4.9871C50.4498 4.49894 50.5083 4.52505 51.6174 5.63711C52.2508 6.27407 53.0775 7.44879 53.4539 8.24759C53.8304 9.0464 54.2348 9.90525 54.3518 10.1559C54.4689 10.4039 54.5655 10.9442 54.5655 11.3541C54.5655 12.1607 55.0208 12.688 56.2087 13.2571C57.7171 13.9776 57.5976 16.314 56.0154 17.0945C55.6237 17.2851 53.9652 17.6062 52.3271 17.8072ZM35.6151 47.799C40.4175 48.2245 49.2746 48.1305 54.3111 47.6006L57.2364 47.2926L57.3101 44.8779L57.3839 42.4632H30.6549V44.8204C30.6549 46.4703 30.7515 47.2142 30.9728 47.2978C31.1483 47.363 33.2367 47.5875 35.6151 47.799ZM48.6286 27.7374C47.138 28.4632 46.3926 28.6589 44.7596 28.7503C42.3736 28.8861 41.201 28.6642 39.2271 27.7035C37.5711 26.8995 35.2132 24.6179 34.3966 23.0334C33.7912 21.8613 33.1629 19.9634 33.3232 19.799C33.3792 19.7415 34.7782 19.8381 36.4316 20.0156C39.4001 20.3341 51.0018 20.2271 53.4844 19.859C54.5045 19.705 54.5655 19.7337 54.5655 20.3367C54.5655 21.3783 53.1512 23.9601 51.7675 25.4481C50.9051 26.3722 49.8572 27.137 48.6286 27.7374Z" fill="#FFBE42"/>
</svg>
