<svg width="194" height="54" viewBox="0 0 194 54" fill="none" xmlns="http://www.w3.org/2000/svg">
<path d="M56.1186 31.3261C54.0969 31.3261 52.4013 31.0326 51.0317 30.4457C49.6839 29.837 48.6513 29.0544 47.934 28.0979C47.2383 27.1196 46.8687 26.0979 46.8253 25.0327C46.8253 24.837 46.8905 24.674 47.0209 24.5435C47.1514 24.4131 47.3144 24.3479 47.51 24.3479H50.4122C50.6948 24.3479 50.9013 24.4131 51.0317 24.5435C51.1839 24.6522 51.3143 24.7935 51.423 24.9675C51.5535 25.3805 51.8035 25.7935 52.173 26.2066C52.5426 26.5979 53.0426 26.924 53.673 27.1848C54.3252 27.4457 55.1404 27.5761 56.1186 27.5761C57.6838 27.5761 58.8469 27.3153 59.6077 26.7935C60.3903 26.2718 60.7816 25.5653 60.7816 24.674C60.7816 24.0436 60.5751 23.5436 60.1621 23.174C59.749 22.7827 59.1077 22.4349 58.2382 22.1305C57.3904 21.8044 56.2599 21.4675 54.8469 21.1197C53.2165 20.7284 51.847 20.261 50.7383 19.7175C49.6513 19.1523 48.8252 18.4458 48.26 17.598C47.7166 16.7502 47.4448 15.6741 47.4448 14.3697C47.4448 13.1089 47.7818 11.9893 48.4557 11.0111C49.1513 10.0328 50.1296 9.26111 51.3904 8.6959C52.673 8.13069 54.1948 7.84808 55.9556 7.84808C57.3686 7.84808 58.6186 8.04373 59.7056 8.43503C60.7925 8.80459 61.6947 9.30459 62.4121 9.93501C63.1294 10.5437 63.6729 11.2067 64.0425 11.9241C64.4338 12.6198 64.6403 13.3045 64.662 13.9784C64.662 14.1524 64.5968 14.3154 64.4664 14.4676C64.3577 14.598 64.1946 14.6632 63.9773 14.6632H60.9447C60.7708 14.6632 60.5969 14.6197 60.4229 14.5328C60.249 14.4458 60.1077 14.2828 59.999 14.0437C59.8686 13.3698 59.4447 12.7937 58.7273 12.3154C58.0099 11.8372 57.086 11.598 55.9556 11.598C54.7817 11.598 53.8361 11.8154 53.1187 12.2502C52.4013 12.685 52.0426 13.3589 52.0426 14.2719C52.0426 14.8806 52.2165 15.3915 52.5643 15.8045C52.9339 16.1958 53.51 16.5436 54.2926 16.848C55.0969 17.1523 56.1513 17.4784 57.4556 17.8262C59.3034 18.2393 60.8142 18.7175 61.9881 19.261C63.162 19.8045 64.0207 20.5001 64.5642 21.3479C65.1077 22.174 65.3794 23.2283 65.3794 24.5109C65.3794 25.9457 64.9881 27.174 64.2055 28.1957C63.4447 29.1957 62.3686 29.9674 60.9773 30.5109C59.586 31.0543 57.9664 31.3261 56.1186 31.3261ZM76.0293 31.3261C73.6163 31.3261 71.7033 30.6304 70.2903 29.2391C68.8773 27.8479 68.1164 25.8696 68.0077 23.3044C67.986 23.087 67.9751 22.8153 67.9751 22.4892C67.9751 22.1414 67.986 21.8697 68.0077 21.674C68.0946 20.0436 68.4642 18.6306 69.1164 17.4349C69.7903 16.2393 70.7142 15.3263 71.8881 14.6958C73.062 14.0437 74.4424 13.7176 76.0293 13.7176C77.7902 13.7176 79.2684 14.0871 80.4641 14.8263C81.6597 15.5436 82.5619 16.5545 83.1706 17.8588C83.7793 19.1414 84.0836 20.6305 84.0836 22.3262V23.011C84.0836 23.2283 84.0075 23.4131 83.8553 23.5653C83.7032 23.7175 83.5075 23.7936 83.2684 23.7936H72.4424C72.4424 23.7936 72.4424 23.8262 72.4424 23.8914C72.4424 23.9566 72.4424 24.0109 72.4424 24.0544C72.4642 24.8153 72.6055 25.5218 72.8663 26.174C73.1489 26.8044 73.5511 27.3153 74.0728 27.7066C74.6163 28.0979 75.2576 28.2935 75.9967 28.2935C76.6054 28.2935 77.1163 28.2066 77.5293 28.0326C77.9424 27.837 78.2793 27.6196 78.5402 27.3805C78.8011 27.1413 78.9858 26.9457 79.0945 26.7935C79.2902 26.5327 79.4424 26.3805 79.551 26.337C79.6815 26.2718 79.8663 26.2392 80.1054 26.2392H82.9097C83.1271 26.2392 83.301 26.3044 83.4314 26.4348C83.5836 26.5653 83.6488 26.7283 83.6271 26.924C83.6053 27.2718 83.4206 27.6957 83.0727 28.1957C82.7467 28.6957 82.2684 29.1848 81.638 29.6631C81.0076 30.1413 80.2141 30.5435 79.2576 30.8696C78.3228 31.1739 77.2467 31.3261 76.0293 31.3261ZM72.4424 21.0545H79.6489V20.9566C79.6489 20.1088 79.5076 19.3697 79.225 18.7393C78.9424 18.1088 78.5293 17.6088 77.9858 17.2393C77.4424 16.8697 76.7902 16.6849 76.0293 16.6849C75.2685 16.6849 74.6163 16.8697 74.0728 17.2393C73.5294 17.6088 73.1163 18.1088 72.8337 18.7393C72.5729 19.3697 72.4424 20.1088 72.4424 20.9566V21.0545ZM88.3275 31C88.1101 31 87.9254 30.9239 87.7732 30.7717C87.621 30.6196 87.5449 30.4348 87.5449 30.2174V14.8589C87.5449 14.6197 87.621 14.4241 87.7732 14.2719C87.9254 14.1197 88.1101 14.0437 88.3275 14.0437H90.9688C91.1862 14.0437 91.371 14.1197 91.5231 14.2719C91.6971 14.4241 91.784 14.6197 91.784 14.8589V16.1958C92.284 15.5002 92.9253 14.9676 93.7079 14.598C94.5122 14.2284 95.4361 14.0437 96.4796 14.0437H97.8166C98.0557 14.0437 98.2405 14.1197 98.3709 14.2719C98.5231 14.4241 98.5992 14.6089 98.5992 14.8263V17.1741C98.5992 17.3915 98.5231 17.5762 98.3709 17.7284C98.2405 17.8806 98.0557 17.9567 97.8166 17.9567H95.2731C94.2296 17.9567 93.4144 18.2501 92.8275 18.8371C92.2623 19.424 91.9797 20.2284 91.9797 21.2501V30.2174C91.9797 30.4348 91.9036 30.6196 91.7514 30.7717C91.5992 30.9239 91.4036 31 91.1645 31H88.3275ZM107.142 31C106.794 31 106.534 30.9239 106.36 30.7717C106.208 30.5978 106.077 30.4022 105.968 30.1848L99.8706 15.0545C99.8271 14.9458 99.8054 14.848 99.8054 14.761C99.8054 14.5654 99.8706 14.4024 100.001 14.2719C100.153 14.1197 100.327 14.0437 100.523 14.0437H103.164C103.425 14.0437 103.621 14.1197 103.751 14.2719C103.881 14.4024 103.968 14.5328 104.012 14.6632L108.349 26.1087L112.686 14.6632C112.729 14.5328 112.816 14.4024 112.947 14.2719C113.077 14.1197 113.273 14.0437 113.534 14.0437H116.207C116.381 14.0437 116.533 14.1197 116.664 14.2719C116.816 14.4024 116.892 14.5654 116.892 14.761C116.892 14.848 116.881 14.9458 116.86 15.0545L110.729 30.1848C110.642 30.4022 110.512 30.5978 110.338 30.7717C110.164 30.9239 109.903 31 109.555 31H107.142ZM121.041 31C120.823 31 120.638 30.9239 120.486 30.7717C120.334 30.6196 120.258 30.4348 120.258 30.2174V8.98937C120.258 8.75024 120.334 8.55459 120.486 8.40242C120.638 8.25025 120.823 8.17416 121.041 8.17416H135.388C135.627 8.17416 135.823 8.25025 135.975 8.40242C136.127 8.55459 136.203 8.75024 136.203 8.98937V11.1415C136.203 11.3589 136.127 11.5437 135.975 11.6959C135.823 11.848 135.627 11.9241 135.388 11.9241H124.66V17.6958H134.671C134.91 17.6958 135.106 17.7719 135.258 17.9241C135.41 18.0545 135.486 18.2393 135.486 18.4784V20.5001C135.486 20.7392 135.41 20.9349 135.258 21.0871C135.106 21.2175 134.91 21.2827 134.671 21.2827H124.66V27.25H135.649C135.888 27.25 136.084 27.3261 136.236 27.4783C136.388 27.6305 136.464 27.8261 136.464 28.0652V30.2174C136.464 30.4348 136.388 30.6196 136.236 30.7717C136.084 30.9239 135.888 31 135.649 31H121.041ZM145.075 31.3261C143.945 31.3261 142.923 31.1087 142.01 30.6739C141.097 30.2174 140.369 29.6196 139.825 28.8805C139.304 28.1196 139.043 27.2718 139.043 26.337C139.043 24.8153 139.651 23.6088 140.869 22.7175C142.108 21.8044 143.738 21.1958 145.76 20.8914L150.227 20.2392V19.5545C150.227 18.6414 149.999 17.9349 149.543 17.4349C149.086 16.9349 148.303 16.6849 147.195 16.6849C146.412 16.6849 145.771 16.848 145.271 17.1741C144.793 17.4784 144.434 17.8914 144.195 18.4132C144.021 18.6958 143.771 18.8371 143.445 18.8371H140.869C140.63 18.8371 140.445 18.7719 140.314 18.6414C140.206 18.511 140.151 18.3371 140.151 18.1197C140.173 17.7719 140.314 17.348 140.575 16.848C140.836 16.348 141.249 15.8697 141.814 15.4132C142.38 14.935 143.108 14.5328 143.999 14.2067C144.89 13.8806 145.967 13.7176 147.227 13.7176C148.597 13.7176 149.749 13.8915 150.684 14.2393C151.64 14.5654 152.401 15.011 152.966 15.5763C153.532 16.1415 153.945 16.8045 154.206 17.5654C154.466 18.3262 154.597 19.1306 154.597 19.9784V30.2174C154.597 30.4348 154.521 30.6196 154.369 30.7717C154.216 30.9239 154.032 31 153.814 31H151.173C150.934 31 150.738 30.9239 150.586 30.7717C150.456 30.6196 150.39 30.4348 150.39 30.2174V28.9457C150.108 29.3587 149.727 29.75 149.249 30.1196C148.771 30.4674 148.184 30.7609 147.488 31C146.814 31.2174 146.01 31.3261 145.075 31.3261ZM146.184 28.2283C146.945 28.2283 147.63 28.0652 148.238 27.7392C148.869 27.4131 149.358 26.9131 149.706 26.2392C150.075 25.5435 150.26 24.674 150.26 23.6305V22.9457L146.999 23.4675C145.717 23.6631 144.76 23.9783 144.13 24.4131C143.499 24.8479 143.184 25.3805 143.184 26.0109C143.184 26.4892 143.325 26.9022 143.608 27.25C143.912 27.5761 144.293 27.8261 144.749 28C145.206 28.1522 145.684 28.2283 146.184 28.2283ZM165.204 31.3261C163.9 31.3261 162.78 31.1739 161.845 30.8696C160.932 30.5652 160.182 30.1848 159.595 29.7283C159.008 29.2718 158.574 28.8152 158.291 28.3587C158.008 27.9022 157.856 27.5218 157.834 27.2174C157.813 26.9783 157.878 26.7935 158.03 26.6631C158.204 26.5109 158.389 26.4348 158.584 26.4348H161.161C161.247 26.4348 161.324 26.4457 161.389 26.4674C161.454 26.4892 161.541 26.5544 161.65 26.6631C161.932 26.9022 162.226 27.1522 162.53 27.4131C162.856 27.6739 163.237 27.9022 163.671 28.0979C164.106 28.2718 164.65 28.3587 165.302 28.3587C166.15 28.3587 166.856 28.1957 167.421 27.8696C168.008 27.5218 168.302 27.0327 168.302 26.4022C168.302 25.9457 168.171 25.5761 167.91 25.2935C167.671 25.0109 167.215 24.7609 166.541 24.5435C165.867 24.3044 164.911 24.0544 163.671 23.7936C162.454 23.511 161.443 23.1523 160.639 22.7175C159.834 22.2827 159.237 21.7392 158.845 21.0871C158.454 20.4349 158.258 19.674 158.258 18.8045C158.258 17.9567 158.508 17.1523 159.008 16.3915C159.53 15.6089 160.291 14.9676 161.291 14.4676C162.313 13.9676 163.574 13.7176 165.074 13.7176C166.247 13.7176 167.269 13.8698 168.139 14.1741C169.008 14.4567 169.726 14.8154 170.291 15.2502C170.878 15.685 171.323 16.1306 171.628 16.5871C171.932 17.0219 172.095 17.4023 172.117 17.7284C172.139 17.9675 172.073 18.1632 171.921 18.3154C171.769 18.4458 171.595 18.511 171.4 18.511H168.987C168.878 18.511 168.78 18.4893 168.693 18.4458C168.606 18.4023 168.519 18.348 168.432 18.2827C168.193 18.0654 167.932 17.8371 167.65 17.598C167.367 17.3588 167.019 17.1523 166.606 16.9784C166.215 16.7828 165.693 16.6849 165.041 16.6849C164.215 16.6849 163.584 16.8697 163.15 17.2393C162.715 17.5871 162.497 18.0328 162.497 18.5762C162.497 18.9458 162.595 19.2719 162.791 19.5545C163.008 19.8153 163.432 20.0653 164.063 20.3045C164.693 20.5436 165.65 20.7936 166.932 21.0545C168.389 21.3153 169.541 21.7066 170.389 22.2284C171.258 22.7284 171.867 23.3153 172.215 23.9892C172.584 24.6414 172.769 25.3696 172.769 26.174C172.769 27.1522 172.476 28.0326 171.889 28.8152C171.323 29.5978 170.476 30.2174 169.345 30.6739C168.237 31.1087 166.856 31.3261 165.204 31.3261ZM183.439 31.3261C181.026 31.3261 179.113 30.6304 177.7 29.2391C176.287 27.8479 175.526 25.8696 175.418 23.3044C175.396 23.087 175.385 22.8153 175.385 22.4892C175.385 22.1414 175.396 21.8697 175.418 21.674C175.505 20.0436 175.874 18.6306 176.526 17.4349C177.2 16.2393 178.124 15.3263 179.298 14.6958C180.472 14.0437 181.852 13.7176 183.439 13.7176C185.2 13.7176 186.679 14.0871 187.874 14.8263C189.07 15.5436 189.972 16.5545 190.581 17.8588C191.189 19.1414 191.494 20.6305 191.494 22.3262V23.011C191.494 23.2283 191.418 23.4131 191.265 23.5653C191.113 23.7175 190.918 23.7936 190.678 23.7936H179.853C179.853 23.7936 179.853 23.8262 179.853 23.8914C179.853 23.9566 179.853 24.0109 179.853 24.0544C179.874 24.8153 180.016 25.5218 180.276 26.174C180.559 26.8044 180.961 27.3153 181.483 27.7066C182.026 28.0979 182.668 28.2935 183.407 28.2935C184.016 28.2935 184.526 28.2066 184.939 28.0326C185.352 27.837 185.689 27.6196 185.95 27.3805C186.211 27.1413 186.396 26.9457 186.505 26.7935C186.7 26.5327 186.852 26.3805 186.961 26.337C187.092 26.2718 187.276 26.2392 187.515 26.2392H190.32C190.537 26.2392 190.711 26.3044 190.842 26.4348C190.994 26.5653 191.059 26.7283 191.037 26.924C191.015 27.2718 190.831 27.6957 190.483 28.1957C190.157 28.6957 189.678 29.1848 189.048 29.6631C188.418 30.1413 187.624 30.5435 186.668 30.8696C185.733 31.1739 184.657 31.3261 183.439 31.3261ZM179.853 21.0545H187.059V20.9566C187.059 20.1088 186.918 19.3697 186.635 18.7393C186.352 18.1088 185.939 17.6088 185.396 17.2393C184.852 16.8697 184.2 16.6849 183.439 16.6849C182.679 16.6849 182.026 16.8697 181.483 17.2393C180.939 17.6088 180.526 18.1088 180.244 18.7393C179.983 19.3697 179.853 20.1088 179.853 20.9566V21.0545Z" fill="#EEEEEE"/>
<path d="M48.5327 48.6084C48.4132 48.6084 48.3208 48.5758 48.2555 48.5106C48.1903 48.4345 48.1577 48.3421 48.1577 48.2334V37.5868C48.1577 37.4672 48.1903 37.3748 48.2555 37.3096C48.3208 37.2335 48.4132 37.1955 48.5327 37.1955H53.0001C53.8153 37.1955 54.4783 37.3313 54.9892 37.6031C55.5109 37.864 55.8913 38.2226 56.1305 38.6792C56.3805 39.1357 56.5055 39.6465 56.5055 40.2118C56.5055 40.6574 56.4294 41.0433 56.2772 41.3693C56.1359 41.6846 55.9565 41.9454 55.7392 42.1519C55.5218 42.3476 55.3098 42.4998 55.1033 42.6085C55.5272 42.815 55.9022 43.1519 56.2283 43.6193C56.5652 44.0867 56.7337 44.6519 56.7337 45.315C56.7337 45.9128 56.5978 46.4617 56.3261 46.9617C56.0544 47.4617 55.6468 47.8638 55.1033 48.1682C54.5707 48.4617 53.9077 48.6084 53.1142 48.6084H48.5327ZM49.7555 47.2878H52.9022C53.6087 47.2878 54.1522 47.0975 54.5327 46.7171C54.9131 46.3367 55.1033 45.8693 55.1033 45.315C55.1033 44.7389 54.9131 44.2661 54.5327 43.8965C54.1522 43.5161 53.6087 43.3258 52.9022 43.3258H49.7555V47.2878ZM49.7555 42.0215H52.7555C53.4511 42.0215 53.9783 41.8639 54.337 41.5487C54.6957 41.2226 54.875 40.7824 54.875 40.2281C54.875 39.6737 54.6957 39.2498 54.337 38.9563C53.9783 38.6629 53.4511 38.5161 52.7555 38.5161H49.7555V42.0215ZM62.3092 48.7714C61.4832 48.7714 60.7929 48.6138 60.2386 48.2986C59.6843 47.9834 59.2604 47.5486 58.9669 46.9943C58.6734 46.4291 58.5104 45.7878 58.4778 45.0704C58.4669 44.8856 58.4614 44.6519 58.4614 44.3693C58.4614 44.0758 58.4669 43.8421 58.4778 43.6682C58.5104 42.94 58.6734 42.2987 58.9669 41.7443C59.2712 41.19 59.7006 40.7552 60.2549 40.44C60.8092 40.1248 61.494 39.9672 62.3092 39.9672C63.1244 39.9672 63.8092 40.1248 64.3636 40.44C64.9179 40.7552 65.3418 41.19 65.6353 41.7443C65.9396 42.2987 66.1081 42.94 66.1407 43.6682C66.1516 43.8421 66.157 44.0758 66.157 44.3693C66.157 44.6519 66.1516 44.8856 66.1407 45.0704C66.1081 45.7878 65.9451 46.4291 65.6516 46.9943C65.3581 47.5486 64.9342 47.9834 64.3799 48.2986C63.8255 48.6138 63.1353 48.7714 62.3092 48.7714ZM62.3092 47.516C62.9831 47.516 63.5212 47.3041 63.9233 46.8802C64.3255 46.4454 64.5429 45.815 64.5755 44.9889C64.5864 44.8258 64.5918 44.6193 64.5918 44.3693C64.5918 44.1193 64.5864 43.9128 64.5755 43.7498C64.5429 42.9237 64.3255 42.2987 63.9233 41.8748C63.5212 41.44 62.9831 41.2226 62.3092 41.2226C61.6353 41.2226 61.0919 41.44 60.6788 41.8748C60.2766 42.2987 60.0647 42.9237 60.043 43.7498C60.0321 43.9128 60.0266 44.1193 60.0266 44.3693C60.0266 44.6193 60.0321 44.8258 60.043 44.9889C60.0647 45.815 60.2766 46.4454 60.6788 46.8802C61.0919 47.3041 61.6353 47.516 62.3092 47.516ZM71.6714 48.7714C70.8453 48.7714 70.1551 48.6138 69.6008 48.2986C69.0464 47.9834 68.6225 47.5486 68.329 46.9943C68.0356 46.4291 67.8725 45.7878 67.8399 45.0704C67.829 44.8856 67.8236 44.6519 67.8236 44.3693C67.8236 44.0758 67.829 43.8421 67.8399 43.6682C67.8725 42.94 68.0356 42.2987 68.329 41.7443C68.6334 41.19 69.0627 40.7552 69.6171 40.44C70.1714 40.1248 70.8562 39.9672 71.6714 39.9672C72.4866 39.9672 73.1714 40.1248 73.7257 40.44C74.2801 40.7552 74.704 41.19 74.9974 41.7443C75.3018 42.2987 75.4703 42.94 75.5029 43.6682C75.5137 43.8421 75.5192 44.0758 75.5192 44.3693C75.5192 44.6519 75.5137 44.8856 75.5029 45.0704C75.4703 45.7878 75.3072 46.4291 75.0137 46.9943C74.7203 47.5486 74.2964 47.9834 73.742 48.2986C73.1877 48.6138 72.4975 48.7714 71.6714 48.7714ZM71.6714 47.516C72.3453 47.516 72.8833 47.3041 73.2855 46.8802C73.6877 46.4454 73.9051 45.815 73.9377 44.9889C73.9485 44.8258 73.954 44.6193 73.954 44.3693C73.954 44.1193 73.9485 43.9128 73.9377 43.7498C73.9051 42.9237 73.6877 42.2987 73.2855 41.8748C72.8833 41.44 72.3453 41.2226 71.6714 41.2226C70.9975 41.2226 70.454 41.44 70.041 41.8748C69.6388 42.2987 69.4268 42.9237 69.4051 43.7498C69.3942 43.9128 69.3888 44.1193 69.3888 44.3693C69.3888 44.6193 69.3942 44.8258 69.4051 44.9889C69.4268 45.815 69.6388 46.4454 70.041 46.8802C70.454 47.3041 70.9975 47.516 71.6714 47.516ZM77.9521 48.6084C77.8434 48.6084 77.751 48.5758 77.6749 48.5106C77.6097 48.4345 77.5771 48.3421 77.5771 48.2334V37.4074C77.5771 37.2987 77.6097 37.2118 77.6749 37.1466C77.751 37.0705 77.8434 37.0324 77.9521 37.0324H78.7184C78.8271 37.0324 78.914 37.0705 78.9792 37.1466C79.0553 37.2118 79.0934 37.2987 79.0934 37.4074V43.0813L82.3053 40.4074C82.4357 40.2987 82.5335 40.2281 82.5987 40.1954C82.6748 40.152 82.7944 40.1302 82.9574 40.1302H83.8216C83.9194 40.1302 84.0009 40.1628 84.0661 40.2281C84.1313 40.2933 84.1639 40.3748 84.1639 40.4726C84.1639 40.5161 84.1476 40.565 84.115 40.6194C84.0933 40.6737 84.0444 40.728 83.9683 40.7824L80.202 43.9128L84.3759 47.9725C84.5063 48.0812 84.5716 48.1791 84.5716 48.266C84.5716 48.3638 84.5389 48.4454 84.4737 48.5106C84.4085 48.5758 84.327 48.6084 84.2292 48.6084H83.3813C83.2183 48.6084 83.0987 48.5921 83.0227 48.5595C82.9466 48.516 82.8487 48.4399 82.7292 48.3312L79.0934 44.8584V48.2334C79.0934 48.3421 79.0553 48.4345 78.9792 48.5106C78.914 48.5758 78.8271 48.6084 78.7184 48.6084H77.9521ZM86.3426 48.6084C86.2339 48.6084 86.1415 48.5758 86.0654 48.5106C86.0002 48.4345 85.9676 48.3421 85.9676 48.2334V40.5052C85.9676 40.3965 86.0002 40.3096 86.0654 40.2444C86.1415 40.1683 86.2339 40.1302 86.3426 40.1302H87.1252C87.2339 40.1302 87.3208 40.1683 87.3861 40.2444C87.4513 40.3096 87.4839 40.3965 87.4839 40.5052V48.2334C87.4839 48.3421 87.4513 48.4345 87.3861 48.5106C87.3208 48.5758 87.2339 48.6084 87.1252 48.6084H86.3426ZM86.2122 38.5487C86.1035 38.5487 86.0111 38.5161 85.935 38.4509C85.8698 38.3748 85.8372 38.2824 85.8372 38.1737V37.2933C85.8372 37.1846 85.8698 37.0977 85.935 37.0324C86.0111 36.9564 86.1035 36.9183 86.2122 36.9183H87.2393C87.348 36.9183 87.435 36.9564 87.5002 37.0324C87.5763 37.0977 87.6143 37.1846 87.6143 37.2933V38.1737C87.6143 38.2824 87.5763 38.3748 87.5002 38.4509C87.435 38.5161 87.348 38.5487 87.2393 38.5487H86.2122ZM90.2913 48.6084C90.1826 48.6084 90.0902 48.5758 90.0141 48.5106C89.9489 48.4345 89.9163 48.3421 89.9163 48.2334V40.5052C89.9163 40.3965 89.9489 40.3096 90.0141 40.2444C90.0902 40.1683 90.1826 40.1302 90.2913 40.1302H91.0576C91.1662 40.1302 91.2532 40.1683 91.3184 40.2444C91.3945 40.3096 91.4326 40.3965 91.4326 40.5052V41.2226C91.7152 40.853 92.0684 40.5541 92.4923 40.3259C92.9271 40.0868 93.4814 39.9672 94.1553 39.9672C94.8619 39.9672 95.4597 40.1248 95.9488 40.44C96.4488 40.7444 96.8238 41.1737 97.0738 41.728C97.3238 42.2715 97.4488 42.9074 97.4488 43.6356V48.2334C97.4488 48.3421 97.4162 48.4345 97.351 48.5106C97.2857 48.5758 97.1988 48.6084 97.0901 48.6084H96.2749C96.1662 48.6084 96.0738 48.5758 95.9977 48.5106C95.9325 48.4345 95.8999 48.3421 95.8999 48.2334V43.7171C95.8999 42.9563 95.7151 42.3639 95.3456 41.94C94.976 41.5052 94.4325 41.2878 93.7151 41.2878C93.0412 41.2878 92.4978 41.5052 92.0847 41.94C91.6825 42.3639 91.4815 42.9563 91.4815 43.7171V48.2334C91.4815 48.3421 91.4434 48.4345 91.3673 48.5106C91.3021 48.5758 91.2152 48.6084 91.1065 48.6084H90.2913ZM103.277 52.1953C102.538 52.1953 101.929 52.0975 101.451 51.9018C100.983 51.7062 100.614 51.4671 100.342 51.1845C100.081 50.9127 99.8908 50.6356 99.7712 50.3529C99.6625 50.0812 99.6028 49.8638 99.5919 49.7008C99.581 49.5921 99.6136 49.4997 99.6897 49.4236C99.7767 49.3475 99.8691 49.3095 99.9669 49.3095H100.749C100.847 49.3095 100.929 49.3312 100.994 49.3747C101.059 49.4182 101.114 49.5106 101.157 49.6519C101.222 49.8149 101.32 49.9943 101.451 50.1899C101.581 50.3964 101.782 50.5703 102.054 50.7116C102.326 50.8638 102.706 50.9399 103.195 50.9399C103.706 50.9399 104.135 50.8692 104.483 50.7279C104.831 50.5975 105.092 50.3584 105.266 50.0106C105.451 49.6736 105.543 49.2062 105.543 48.6084V47.4997C105.282 47.8367 104.94 48.1193 104.516 48.3475C104.092 48.5649 103.559 48.6736 102.918 48.6736C102.309 48.6736 101.788 48.5704 101.353 48.3638C100.918 48.1464 100.559 47.8584 100.277 47.4997C100.005 47.1302 99.7984 46.7117 99.6571 46.2443C99.5267 45.7769 99.4506 45.2878 99.4289 44.7769C99.418 44.4726 99.418 44.1737 99.4289 43.8802C99.4506 43.3693 99.5267 42.8802 99.6571 42.4128C99.7984 41.9454 100.005 41.527 100.277 41.1574C100.559 40.7878 100.918 40.4998 101.353 40.2933C101.788 40.0759 102.309 39.9672 102.918 39.9672C103.57 39.9672 104.108 40.0922 104.532 40.3422C104.967 40.5813 105.32 40.8748 105.592 41.2226V40.5215C105.592 40.4128 105.624 40.3204 105.69 40.2444C105.766 40.1683 105.858 40.1302 105.967 40.1302H106.717C106.826 40.1302 106.918 40.1683 106.994 40.2444C107.07 40.3204 107.108 40.4128 107.108 40.5215V48.4291C107.108 49.1573 106.983 49.804 106.733 50.3692C106.494 50.9345 106.092 51.3801 105.527 51.7062C104.972 52.0323 104.222 52.1953 103.277 52.1953ZM103.244 47.3693C103.788 47.3693 104.222 47.2443 104.548 46.9943C104.885 46.7443 105.13 46.4291 105.282 46.0486C105.445 45.6682 105.532 45.2823 105.543 44.891C105.554 44.7389 105.559 44.5541 105.559 44.3367C105.559 44.1084 105.554 43.9182 105.543 43.7661C105.532 43.3748 105.445 42.9889 105.282 42.6085C105.13 42.228 104.885 41.9128 104.548 41.6628C104.222 41.4128 103.788 41.2878 103.244 41.2878C102.701 41.2878 102.266 41.4128 101.94 41.6628C101.614 41.902 101.38 42.2226 101.239 42.6248C101.097 43.0161 101.016 43.44 100.994 43.8965C100.983 44.1791 100.983 44.4671 100.994 44.7606C101.016 45.2171 101.097 45.6465 101.239 46.0486C101.38 46.4399 101.614 46.7606 101.94 47.0106C102.266 47.2497 102.701 47.3693 103.244 47.3693ZM116.463 48.7714C115.855 48.7714 115.333 48.6954 114.898 48.5432C114.463 48.391 114.11 48.2062 113.838 47.9888C113.567 47.7715 113.36 47.5541 113.219 47.3367C113.088 47.1193 113.018 46.9454 113.007 46.8149C112.996 46.6954 113.034 46.603 113.121 46.5378C113.208 46.4726 113.295 46.4399 113.382 46.4399H114.099C114.165 46.4399 114.213 46.4508 114.246 46.4726C114.29 46.4834 114.344 46.5269 114.409 46.603C114.55 46.7552 114.708 46.9073 114.882 47.0595C115.056 47.2117 115.268 47.3367 115.518 47.4345C115.779 47.5323 116.099 47.5812 116.48 47.5812C117.034 47.5812 117.491 47.478 117.849 47.2715C118.208 47.0541 118.387 46.7389 118.387 46.3258C118.387 46.0541 118.311 45.8367 118.159 45.6736C118.018 45.5106 117.757 45.3639 117.376 45.2334C117.007 45.103 116.496 44.9671 115.844 44.8258C115.192 44.6737 114.675 44.4889 114.295 44.2715C113.915 44.0432 113.643 43.7769 113.48 43.4726C113.317 43.1574 113.235 42.8041 113.235 42.4128C113.235 42.0106 113.355 41.6248 113.594 41.2552C113.833 40.8748 114.181 40.565 114.637 40.3259C115.105 40.0868 115.686 39.9672 116.382 39.9672C116.947 39.9672 117.431 40.0378 117.833 40.1791C118.235 40.3204 118.567 40.4998 118.828 40.7172C119.088 40.9237 119.284 41.1302 119.414 41.3367C119.545 41.5433 119.616 41.7172 119.626 41.8585C119.637 41.9672 119.605 42.0596 119.529 42.1356C119.453 42.2009 119.366 42.2335 119.268 42.2335H118.583C118.507 42.2335 118.442 42.2172 118.387 42.1846C118.344 42.1519 118.3 42.1139 118.257 42.0704C118.148 41.9291 118.018 41.7878 117.866 41.6465C117.724 41.5052 117.534 41.3911 117.295 41.3041C117.067 41.2063 116.762 41.1574 116.382 41.1574C115.838 41.1574 115.431 41.2715 115.159 41.4998C114.887 41.728 114.751 42.0161 114.751 42.3639C114.751 42.5704 114.811 42.7552 114.931 42.9182C115.05 43.0813 115.279 43.228 115.616 43.3585C115.953 43.4889 116.453 43.6302 117.116 43.7824C117.833 43.9237 118.398 44.1139 118.811 44.353C119.224 44.5921 119.518 44.8693 119.692 45.1845C119.866 45.4997 119.952 45.8639 119.952 46.2769C119.952 46.7334 119.817 47.1519 119.545 47.5323C119.284 47.9128 118.893 48.2171 118.371 48.4454C117.86 48.6627 117.224 48.7714 116.463 48.7714ZM125.215 48.7714C124.095 48.7714 123.204 48.4291 122.541 47.7443C121.878 47.0486 121.514 46.103 121.449 44.9074C121.438 44.766 121.432 44.5867 121.432 44.3693C121.432 44.1411 121.438 43.9563 121.449 43.815C121.492 43.0432 121.671 42.3693 121.987 41.7933C122.302 41.2063 122.731 40.7552 123.275 40.44C123.829 40.1248 124.476 39.9672 125.215 39.9672C126.041 39.9672 126.731 40.1411 127.286 40.4889C127.851 40.8367 128.28 41.3313 128.574 41.9726C128.867 42.6139 129.014 43.3639 129.014 44.2226V44.4997C129.014 44.6193 128.976 44.7117 128.9 44.7769C128.834 44.8421 128.747 44.8747 128.639 44.8747H122.998C122.998 44.8856 122.998 44.9074 122.998 44.94C122.998 44.9726 122.998 44.9997 122.998 45.0215C123.019 45.4671 123.117 45.8856 123.291 46.2769C123.465 46.6573 123.715 46.9671 124.041 47.2062C124.367 47.4454 124.758 47.5649 125.215 47.5649C125.606 47.5649 125.932 47.5051 126.193 47.3856C126.454 47.266 126.666 47.1356 126.829 46.9943C126.992 46.8421 127.101 46.728 127.155 46.6519C127.253 46.5106 127.329 46.4291 127.383 46.4073C127.438 46.3747 127.525 46.3584 127.644 46.3584H128.427C128.536 46.3584 128.622 46.391 128.688 46.4562C128.764 46.5106 128.796 46.5921 128.786 46.7008C128.775 46.8639 128.688 47.0649 128.525 47.3041C128.362 47.5323 128.128 47.7606 127.824 47.9888C127.519 48.2171 127.15 48.4073 126.715 48.5595C126.28 48.7008 125.78 48.7714 125.215 48.7714ZM122.998 43.7498H127.465V43.7008C127.465 43.2117 127.373 42.7769 127.188 42.3965C127.014 42.0161 126.758 41.7172 126.421 41.4998C126.084 41.2715 125.682 41.1574 125.215 41.1574C124.748 41.1574 124.345 41.2715 124.008 41.4998C123.682 41.7172 123.432 42.0161 123.258 42.3965C123.085 42.7769 122.998 43.2117 122.998 43.7008V43.7498ZM131.338 48.6084C131.23 48.6084 131.137 48.5758 131.061 48.5106C130.996 48.4345 130.963 48.3421 130.963 48.2334V40.5215C130.963 40.4128 130.996 40.3204 131.061 40.2444C131.137 40.1683 131.23 40.1302 131.338 40.1302H132.088C132.197 40.1302 132.289 40.1683 132.365 40.2444C132.442 40.3204 132.48 40.4128 132.48 40.5215V41.2389C132.697 40.8694 132.996 40.5922 133.376 40.4074C133.757 40.2226 134.213 40.1302 134.746 40.1302H135.398C135.507 40.1302 135.594 40.1683 135.659 40.2444C135.724 40.3096 135.757 40.3965 135.757 40.5052V41.1737C135.757 41.2824 135.724 41.3693 135.659 41.4346C135.594 41.4998 135.507 41.5324 135.398 41.5324H134.42C133.833 41.5324 133.371 41.7063 133.034 42.0541C132.697 42.3911 132.528 42.853 132.528 43.44V48.2334C132.528 48.3421 132.49 48.4345 132.414 48.5106C132.338 48.5758 132.246 48.6084 132.137 48.6084H131.338ZM140.108 48.6084C139.945 48.6084 139.815 48.5704 139.717 48.4943C139.63 48.4182 139.559 48.3204 139.505 48.2008L136.488 40.6357C136.467 40.5813 136.456 40.527 136.456 40.4726C136.456 40.3748 136.488 40.2933 136.554 40.2281C136.619 40.1628 136.7 40.1302 136.798 40.1302H137.581C137.7 40.1302 137.793 40.1628 137.858 40.2281C137.923 40.2933 137.961 40.3531 137.972 40.4074L140.467 46.8312L142.945 40.4074C142.967 40.3531 143.005 40.2933 143.059 40.2281C143.124 40.1628 143.217 40.1302 143.336 40.1302H144.135C144.222 40.1302 144.298 40.1628 144.363 40.2281C144.439 40.2933 144.478 40.3748 144.478 40.4726C144.478 40.527 144.467 40.5813 144.445 40.6357L141.412 48.2008C141.369 48.3204 141.298 48.4182 141.2 48.4943C141.113 48.5704 140.983 48.6084 140.809 48.6084H140.108ZM146.56 48.6084C146.451 48.6084 146.359 48.5758 146.283 48.5106C146.217 48.4345 146.185 48.3421 146.185 48.2334V40.5052C146.185 40.3965 146.217 40.3096 146.283 40.2444C146.359 40.1683 146.451 40.1302 146.56 40.1302H147.342C147.451 40.1302 147.538 40.1683 147.603 40.2444C147.668 40.3096 147.701 40.3965 147.701 40.5052V48.2334C147.701 48.3421 147.668 48.4345 147.603 48.5106C147.538 48.5758 147.451 48.6084 147.342 48.6084H146.56ZM146.429 38.5487C146.321 38.5487 146.228 38.5161 146.152 38.4509C146.087 38.3748 146.054 38.2824 146.054 38.1737V37.2933C146.054 37.1846 146.087 37.0977 146.152 37.0324C146.228 36.9564 146.321 36.9183 146.429 36.9183H147.456C147.565 36.9183 147.652 36.9564 147.717 37.0324C147.793 37.0977 147.831 37.1846 147.831 37.2933V38.1737C147.831 38.2824 147.793 38.3748 147.717 38.4509C147.652 38.5161 147.565 38.5487 147.456 38.5487H146.429ZM153.557 48.7714C152.786 48.7714 152.117 48.6247 151.552 48.3312C150.998 48.0269 150.568 47.5975 150.264 47.0432C149.96 46.478 149.796 45.8041 149.775 45.0215C149.764 44.8584 149.758 44.6411 149.758 44.3693C149.758 44.0976 149.764 43.8802 149.775 43.7171C149.796 42.9345 149.96 42.2661 150.264 41.7117C150.568 41.1465 150.998 40.7172 151.552 40.4237C152.117 40.1194 152.786 39.9672 153.557 39.9672C154.188 39.9672 154.726 40.0541 155.171 40.2281C155.628 40.402 156.003 40.6248 156.296 40.8965C156.59 41.1683 156.807 41.4617 156.949 41.777C157.101 42.0922 157.182 42.3911 157.193 42.6737C157.204 42.7824 157.171 42.8693 157.095 42.9345C157.019 42.9998 156.927 43.0324 156.818 43.0324H156.036C155.927 43.0324 155.845 43.0106 155.791 42.9672C155.737 42.9128 155.682 42.8259 155.628 42.7063C155.432 42.1737 155.166 41.7987 154.829 41.5813C154.492 41.3639 154.074 41.2552 153.574 41.2552C152.921 41.2552 152.389 41.4563 151.976 41.8585C151.574 42.2606 151.356 42.9074 151.324 43.7987C151.313 44.19 151.313 44.5704 151.324 44.94C151.356 45.8421 151.574 46.4943 151.976 46.8965C152.389 47.2878 152.921 47.4834 153.574 47.4834C154.074 47.4834 154.492 47.3747 154.829 47.1573C155.166 46.9399 155.432 46.5649 155.628 46.0323C155.682 45.9128 155.737 45.8313 155.791 45.7878C155.845 45.7334 155.927 45.7063 156.036 45.7063H156.818C156.927 45.7063 157.019 45.7389 157.095 45.8041C157.171 45.8693 157.204 45.9563 157.193 46.0649C157.182 46.2932 157.133 46.5269 157.046 46.766C156.959 47.0052 156.818 47.2497 156.622 47.4997C156.438 47.7388 156.204 47.9562 155.921 48.1519C155.639 48.3367 155.296 48.4888 154.894 48.6084C154.503 48.7171 154.057 48.7714 153.557 48.7714ZM162.504 48.7714C161.385 48.7714 160.493 48.4291 159.83 47.7443C159.167 47.0486 158.803 46.103 158.738 44.9074C158.727 44.766 158.722 44.5867 158.722 44.3693C158.722 44.1411 158.727 43.9563 158.738 43.815C158.782 43.0432 158.961 42.3693 159.276 41.7933C159.591 41.2063 160.021 40.7552 160.564 40.44C161.118 40.1248 161.765 39.9672 162.504 39.9672C163.33 39.9672 164.021 40.1411 164.575 40.4889C165.14 40.8367 165.57 41.3313 165.863 41.9726C166.156 42.6139 166.303 43.3639 166.303 44.2226V44.4997C166.303 44.6193 166.265 44.7117 166.189 44.7769C166.124 44.8421 166.037 44.8747 165.928 44.8747H160.287C160.287 44.8856 160.287 44.9074 160.287 44.94C160.287 44.9726 160.287 44.9997 160.287 45.0215C160.309 45.4671 160.407 45.8856 160.58 46.2769C160.754 46.6573 161.004 46.9671 161.33 47.2062C161.657 47.4454 162.048 47.5649 162.504 47.5649C162.896 47.5649 163.222 47.5051 163.483 47.3856C163.743 47.266 163.955 47.1356 164.118 46.9943C164.281 46.8421 164.39 46.728 164.445 46.6519C164.542 46.5106 164.618 46.4291 164.673 46.4073C164.727 46.3747 164.814 46.3584 164.934 46.3584H165.716C165.825 46.3584 165.912 46.391 165.977 46.4562C166.053 46.5106 166.086 46.5921 166.075 46.7008C166.064 46.8639 165.977 47.0649 165.814 47.3041C165.651 47.5323 165.417 47.7606 165.113 47.9888C164.809 48.2171 164.439 48.4073 164.004 48.5595C163.57 48.7008 163.07 48.7714 162.504 48.7714ZM160.287 43.7498H164.754V43.7008C164.754 43.2117 164.662 42.7769 164.477 42.3965C164.303 42.0161 164.048 41.7172 163.711 41.4998C163.374 41.2715 162.972 41.1574 162.504 41.1574C162.037 41.1574 161.635 41.2715 161.298 41.4998C160.972 41.7172 160.722 42.0161 160.548 42.3965C160.374 42.7769 160.287 43.2117 160.287 43.7008V43.7498ZM171.187 48.7714C170.579 48.7714 170.057 48.6954 169.622 48.5432C169.187 48.391 168.834 48.2062 168.562 47.9888C168.291 47.7715 168.084 47.5541 167.943 47.3367C167.812 47.1193 167.742 46.9454 167.731 46.8149C167.72 46.6954 167.758 46.603 167.845 46.5378C167.932 46.4726 168.019 46.4399 168.106 46.4399H168.823C168.889 46.4399 168.937 46.4508 168.97 46.4726C169.014 46.4834 169.068 46.5269 169.133 46.603C169.274 46.7552 169.432 46.9073 169.606 47.0595C169.78 47.2117 169.992 47.3367 170.242 47.4345C170.503 47.5323 170.823 47.5812 171.204 47.5812C171.758 47.5812 172.215 47.478 172.573 47.2715C172.932 47.0541 173.111 46.7389 173.111 46.3258C173.111 46.0541 173.035 45.8367 172.883 45.6736C172.742 45.5106 172.481 45.3639 172.1 45.2334C171.731 45.103 171.22 44.9671 170.568 44.8258C169.916 44.6737 169.399 44.4889 169.019 44.2715C168.639 44.0432 168.367 43.7769 168.204 43.4726C168.041 43.1574 167.959 42.8041 167.959 42.4128C167.959 42.0106 168.079 41.6248 168.318 41.2552C168.557 40.8748 168.905 40.565 169.361 40.3259C169.829 40.0868 170.41 39.9672 171.106 39.9672C171.671 39.9672 172.155 40.0378 172.557 40.1791C172.959 40.3204 173.291 40.4998 173.552 40.7172C173.812 40.9237 174.008 41.1302 174.139 41.3367C174.269 41.5433 174.34 41.7172 174.35 41.8585C174.361 41.9672 174.329 42.0596 174.253 42.1356C174.177 42.2009 174.09 42.2335 173.992 42.2335H173.307C173.231 42.2335 173.166 42.2172 173.111 42.1846C173.068 42.1519 173.024 42.1139 172.981 42.0704C172.872 41.9291 172.742 41.7878 172.59 41.6465C172.448 41.5052 172.258 41.3911 172.019 41.3041C171.791 41.2063 171.486 41.1574 171.106 41.1574C170.562 41.1574 170.155 41.2715 169.883 41.4998C169.611 41.728 169.476 42.0161 169.476 42.3639C169.476 42.5704 169.535 42.7552 169.655 42.9182C169.774 43.0813 170.003 43.228 170.34 43.3585C170.677 43.4889 171.177 43.6302 171.84 43.7824C172.557 43.9237 173.122 44.1139 173.535 44.353C173.948 44.5921 174.242 44.8693 174.416 45.1845C174.59 45.4997 174.677 45.8639 174.677 46.2769C174.677 46.7334 174.541 47.1519 174.269 47.5323C174.008 47.9128 173.617 48.2171 173.095 48.4454C172.584 48.6627 171.948 48.7714 171.187 48.7714Z" fill="#EEEEEE" fill-opacity="0.6"/>
<rect y="11.4131" width="15.5639" height="15.5639" rx="3.11278" fill="#FDB932"/>
<rect x="18.6748" y="30.0879" width="15.5639" height="15.5639" rx="3.11278" fill="#FDB932"/>
<rect x="18.6748" y="11.4131" width="15.5639" height="15.5639" rx="3.11278" fill="#FDB932"/>
<rect y="30.0879" width="15.5639" height="15.5639" rx="3.11278" fill="#FDB932"/>
</svg>
