<svg width="50" height="50" viewBox="0 0 50 50" fill="none" xmlns="http://www.w3.org/2000/svg">
<rect width="50" height="50" rx="25" fill="#FFBE42"/>
<path d="M13 30.8732V34.767H23.4746V32.3139H15.4877V30.8732C15.4877 30.0425 19.5859 28.1475 23.4746 28.1475C24.7316 28.1605 25.9754 28.3292 27.18 28.6407L29.1702 26.6678C27.3372 26.0578 25.4386 25.7204 23.4746 25.6814C19.9787 25.6814 13 27.4077 13 30.8732ZM23.4746 14C20.581 14 18.2373 16.3233 18.2373 19.1917C18.2373 22.0602 20.581 24.3835 23.4746 24.3835C26.3682 24.3835 28.7119 22.0602 28.7119 19.1917C28.7119 16.3233 26.3682 14 23.4746 14ZM23.4746 21.7876C22.0344 21.7876 20.856 20.6324 20.856 19.1917C20.856 17.751 22.0344 16.5959 23.4746 16.5959C24.9149 16.5959 26.0933 17.764 26.0933 19.1917C26.0933 20.6195 24.928 21.7876 23.4746 21.7876ZM38.7938 26.1357L37.4845 27.4336L34.8003 24.8378L36.1097 23.5398C36.2443 23.409 36.4253 23.3358 36.6137 23.3358C36.8022 23.3358 36.9832 23.409 37.1178 23.5398L38.7938 25.2012C39.0687 25.4737 39.0687 25.928 38.7938 26.2006M26.0933 33.3911L34.0278 25.5257L36.7119 28.1215L28.856 36H26.0933V33.3911Z" fill="black"/>
</svg>
