<svg width="107" height="32" viewBox="0 0 107 32" fill="none" xmlns="http://www.w3.org/2000/svg">
<path d="M16.3 28.8871C15.3426 29.0405 8.33287 29.0365 7.62484 28.8817C7.3572 28.8233 6.61755 28.7039 5.98251 28.617C3.76231 28.3129 1.84747 27.9301 1.46548 27.7143C0.823141 27.3519 0.838956 26.7885 1.55428 24.4211C2.19175 22.313 2.31706 22.0103 2.72217 21.5868C3.16742 21.1239 5.3937 20.1492 5.52022 20.3624C5.57497 20.456 5.6139 21.2365 5.60416 22.0945L5.58835 23.6555H7.38154L7.4156 21.5189L7.44845 19.3809L7.92776 19.1094C8.54577 18.7565 8.80611 18.766 9.22703 19.1515C10.5665 20.3773 11.7343 21.28 11.9813 21.28C12.154 21.28 12.839 20.7927 13.7137 20.0474C15.2587 18.7307 15.3499 18.6981 16.1845 19.1434L16.5056 19.3144L16.5665 21.485L16.6273 23.6555L18.3913 23.7356V22.0402C18.3913 21.1089 18.4387 20.3121 18.4971 20.2728C18.6115 20.194 19.7976 20.7004 20.721 21.223C21.502 21.6641 21.7295 22.0415 22.1759 23.6338C22.3876 24.3926 22.6042 25.1351 22.6565 25.2845C23.0798 26.5035 23.1042 26.9528 22.772 27.4238C22.4691 27.8528 21.4728 28.1052 18.0871 28.6102C17.5519 28.6903 16.7477 28.8152 16.3 28.8871ZM15.9825 12.2597C13.3499 12.6086 7.36694 12.4118 6.32922 11.9407C5.36329 11.5036 5.40708 10.1312 6.40343 9.667C6.74285 9.50954 6.81219 9.38737 6.94723 8.69778C7.14431 7.69463 7.64188 6.7159 8.34747 5.94759C8.94845 5.29194 9.03117 5.30551 9.25866 6.09962C9.4521 6.77428 9.66986 6.96568 9.9229 6.68197C10.0737 6.515 10.1188 6.18514 10.1188 5.26343C10.1188 4.10417 10.1321 4.0458 10.4898 3.64671C11.1699 2.8879 12.4071 2.78202 13.2489 3.4078C13.7672 3.79332 13.7988 3.89105 13.8852 5.36117C13.9703 6.8055 14.1358 7.14486 14.5068 6.63853C14.6358 6.46206 14.7416 6.21365 14.7416 6.08741C14.7416 5.96116 14.8207 5.73854 14.9168 5.59329C15.0847 5.33945 15.1127 5.35303 15.6431 5.9313C15.946 6.26252 16.3414 6.87337 16.5214 7.28875C16.7015 7.70413 16.8949 8.15073 16.9509 8.28105C17.0068 8.41 17.0531 8.69099 17.0531 8.90411C17.0531 9.32357 17.2708 9.59777 17.839 9.89369C18.5604 10.2684 18.5032 11.4833 17.7465 11.8891C17.5592 11.9882 16.766 12.1552 15.9825 12.2597ZM7.98981 27.8555C10.2866 28.0767 14.5227 28.0279 16.9314 27.7523L18.3304 27.5921L18.3657 26.3365L18.401 25.0808H5.61755V26.3066C5.61755 27.1645 5.66377 27.5514 5.76961 27.5948C5.85356 27.6288 6.85234 27.7455 7.98981 27.8555ZM14.2137 17.4235C13.5008 17.8008 13.1443 17.9027 12.3633 17.9502C11.2222 18.0207 10.6613 17.9054 9.7173 17.4058C8.92533 16.9877 7.79759 15.8013 7.40708 14.9773C7.11755 14.3679 6.81706 13.381 6.8937 13.2955C6.92046 13.2656 7.58957 13.3158 8.38032 13.4081C9.80003 13.5737 15.3487 13.5181 16.536 13.3267C17.0239 13.2466 17.0531 13.2615 17.0531 13.5751C17.0531 14.1167 16.3767 15.4592 15.7149 16.233C15.3025 16.7135 14.8012 17.1113 14.2137 17.4235Z" fill="#FFBE42"/>
<path d="M34.27 24.119C33.4427 24.119 32.6947 23.9773 32.026 23.694C31.3687 23.4107 30.8473 23.0027 30.462 22.47C30.0767 21.9373 29.8783 21.3083 29.867 20.583H32.417C32.451 21.0703 32.621 21.4557 32.927 21.739C33.2443 22.0223 33.675 22.164 34.219 22.164C34.7743 22.164 35.2107 22.0337 35.528 21.773C35.8453 21.501 36.004 21.1497 36.004 20.719C36.004 20.3677 35.8963 20.0787 35.681 19.852C35.4657 19.6253 35.1937 19.4497 34.865 19.325C34.5477 19.189 34.1057 19.0417 33.539 18.883C32.7683 18.6563 32.1393 18.4353 31.652 18.22C31.176 17.9933 30.7623 17.659 30.411 17.217C30.071 16.7637 29.901 16.163 29.901 15.415C29.901 14.7123 30.0767 14.1003 30.428 13.579C30.7793 13.0577 31.2723 12.661 31.907 12.389C32.5417 12.1057 33.267 11.964 34.083 11.964C35.307 11.964 36.2987 12.2643 37.058 12.865C37.8287 13.4543 38.2537 14.2817 38.333 15.347H35.715C35.6923 14.939 35.5167 14.6047 35.188 14.344C34.8707 14.072 34.4457 13.936 33.913 13.936C33.4483 13.936 33.0743 14.055 32.791 14.293C32.519 14.531 32.383 14.8767 32.383 15.33C32.383 15.6473 32.485 15.9137 32.689 16.129C32.9043 16.333 33.165 16.503 33.471 16.639C33.7883 16.7637 34.2303 16.911 34.797 17.081C35.5677 17.3077 36.1967 17.5343 36.684 17.761C37.1713 17.9877 37.5907 18.3277 37.942 18.781C38.2933 19.2343 38.469 19.8293 38.469 20.566C38.469 21.2007 38.3047 21.79 37.976 22.334C37.6473 22.878 37.1657 23.3143 36.531 23.643C35.8963 23.9603 35.1427 24.119 34.27 24.119ZM49.2874 19.087C49.2874 19.427 49.2647 19.733 49.2194 20.005H42.3344C42.391 20.685 42.629 21.2177 43.0484 21.603C43.4677 21.9883 43.9834 22.181 44.5954 22.181C45.4794 22.181 46.1084 21.8013 46.4824 21.042H49.0494C48.7774 21.9487 48.256 22.6967 47.4854 23.286C46.7147 23.864 45.7684 24.153 44.6464 24.153C43.7397 24.153 42.9237 23.9547 42.1984 23.558C41.4844 23.15 40.9234 22.5777 40.5154 21.841C40.1187 21.1043 39.9204 20.2543 39.9204 19.291C39.9204 18.3163 40.1187 17.4607 40.5154 16.724C40.912 15.9873 41.4674 15.4207 42.1814 15.024C42.8954 14.6273 43.717 14.429 44.6464 14.429C45.5417 14.429 46.3407 14.6217 47.0434 15.007C47.7574 15.3923 48.307 15.942 48.6924 16.656C49.089 17.3587 49.2874 18.169 49.2874 19.087ZM46.8224 18.407C46.811 17.795 46.59 17.3077 46.1594 16.945C45.7287 16.571 45.2017 16.384 44.5784 16.384C43.989 16.384 43.4904 16.5653 43.0824 16.928C42.6857 17.2793 42.442 17.7723 42.3514 18.407H46.8224ZM53.4046 16.044C53.7106 15.5453 54.1072 15.1543 54.5946 14.871C55.0932 14.5877 55.6599 14.446 56.2946 14.446V16.945H55.6656C54.9176 16.945 54.3509 17.1207 53.9656 17.472C53.5916 17.8233 53.4046 18.4353 53.4046 19.308V24H51.0246V14.582H53.4046V16.044ZM61.8246 21.807L64.2046 14.582H66.7376L63.2526 24H60.3626L56.8946 14.582H59.4446L61.8246 21.807ZM70.4544 14.055V17.03H74.4494V18.917H70.4544V22.062H74.9594V24H68.0744V12.117H74.9594V14.055H70.4544ZM76.5102 19.257C76.5102 18.305 76.6972 17.4607 77.0712 16.724C77.4566 15.9873 77.9722 15.4207 78.6182 15.024C79.2756 14.6273 80.0066 14.429 80.8112 14.429C81.5139 14.429 82.1259 14.5707 82.6472 14.854C83.1799 15.1373 83.6049 15.4943 83.9222 15.925V14.582H86.3192V24H83.9222V22.623C83.6162 23.065 83.1912 23.4333 82.6472 23.728C82.1146 24.0113 81.4969 24.153 80.7942 24.153C80.0009 24.153 79.2756 23.949 78.6182 23.541C77.9722 23.133 77.4566 22.5607 77.0712 21.824C76.6972 21.076 76.5102 20.2203 76.5102 19.257ZM83.9222 19.291C83.9222 18.713 83.8089 18.22 83.5822 17.812C83.3556 17.3927 83.0496 17.0753 82.6642 16.86C82.2789 16.6333 81.8652 16.52 81.4232 16.52C80.9812 16.52 80.5732 16.6277 80.1992 16.843C79.8252 17.0583 79.5192 17.3757 79.2812 17.795C79.0546 18.203 78.9412 18.6903 78.9412 19.257C78.9412 19.8237 79.0546 20.3223 79.2812 20.753C79.5192 21.1723 79.8252 21.4953 80.1992 21.722C80.5846 21.9487 80.9926 22.062 81.4232 22.062C81.8652 22.062 82.2789 21.9543 82.6642 21.739C83.0496 21.5123 83.3556 21.195 83.5822 20.787C83.8089 20.3677 83.9222 19.869 83.9222 19.291ZM92.2477 24.153C91.477 24.153 90.7857 24.017 90.1737 23.745C89.5617 23.4617 89.0744 23.082 88.7117 22.606C88.3604 22.13 88.1677 21.603 88.1337 21.025H90.5307C90.576 21.3877 90.7517 21.688 91.0577 21.926C91.375 22.164 91.766 22.283 92.2307 22.283C92.684 22.283 93.0354 22.1923 93.2847 22.011C93.5454 21.8297 93.6757 21.5973 93.6757 21.314C93.6757 21.008 93.517 20.7813 93.1997 20.634C92.8937 20.4753 92.4007 20.3053 91.7207 20.124C91.018 19.954 90.44 19.7783 89.9867 19.597C89.5447 19.4157 89.1594 19.138 88.8307 18.764C88.5134 18.39 88.3547 17.8857 88.3547 17.251C88.3547 16.7297 88.502 16.2537 88.7967 15.823C89.1027 15.3923 89.5334 15.0523 90.0887 14.803C90.6554 14.5537 91.3184 14.429 92.0777 14.429C93.1997 14.429 94.095 14.7123 94.7637 15.279C95.4324 15.8343 95.8007 16.588 95.8687 17.54H93.5907C93.5567 17.166 93.398 16.8713 93.1147 16.656C92.8427 16.4293 92.4744 16.316 92.0097 16.316C91.579 16.316 91.2447 16.3953 91.0067 16.554C90.78 16.7127 90.6667 16.9337 90.6667 17.217C90.6667 17.5343 90.8254 17.778 91.1427 17.948C91.46 18.1067 91.953 18.271 92.6217 18.441C93.3017 18.611 93.8627 18.7867 94.3047 18.968C94.7467 19.1493 95.1264 19.4327 95.4437 19.818C95.7724 20.192 95.9424 20.6907 95.9537 21.314C95.9537 21.858 95.8007 22.3453 95.4947 22.776C95.2 23.2067 94.7694 23.5467 94.2027 23.796C93.6474 24.034 92.9957 24.153 92.2477 24.153ZM106.662 19.087C106.662 19.427 106.64 19.733 106.594 20.005H99.7094C99.766 20.685 100.004 21.2177 100.423 21.603C100.843 21.9883 101.358 22.181 101.97 22.181C102.854 22.181 103.483 21.8013 103.857 21.042H106.424C106.152 21.9487 105.631 22.6967 104.86 23.286C104.09 23.864 103.143 24.153 102.021 24.153C101.115 24.153 100.299 23.9547 99.5734 23.558C98.8594 23.15 98.2984 22.5777 97.8904 21.841C97.4937 21.1043 97.2954 20.2543 97.2954 19.291C97.2954 18.3163 97.4937 17.4607 97.8904 16.724C98.287 15.9873 98.8424 15.4207 99.5564 15.024C100.27 14.6273 101.092 14.429 102.021 14.429C102.917 14.429 103.716 14.6217 104.418 15.007C105.132 15.3923 105.682 15.942 106.067 16.656C106.464 17.3587 106.662 18.169 106.662 19.087ZM104.197 18.407C104.186 17.795 103.965 17.3077 103.534 16.945C103.104 16.571 102.577 16.384 101.953 16.384C101.364 16.384 100.865 16.5653 100.457 16.928C100.061 17.2793 99.817 17.7723 99.7264 18.407H104.197Z" fill="#020202"/>
</svg>
